# xmcd CD database file generated by Grip 3.3.1
# 
# Track frame offsets:
#       150
#       11484
#       22447
#       32607
#       50611
#       60956
#       71921
#       84312
#       94200
#       104995
#       115737
#       127647
#       138831
#       151776
#       162632
#       175700
# 
# Disc length: 2497 seconds
# 
# Revision: 4
# Processed by: cddbd v1.5.2PL0 Copyright (c) Steve Scherf et al.
# Submitted via: Grip 3.3.1
# 
DISCID=d009bf10
DTITLE=John Lee Hooker - The Ultimate Blues Collection: John Lee Hooker
DYEAR=1900
DGENRE=Blues
TTITLE0=Boom Boom
TTITLE1=This Is Hip
TTITLE2=Big Legs, Tight Skirt
TTITLE3=House Rent Boogie
TTITLE4=She's Mine
TTITLE5=Bottle Up And Go
TTITLE6=Crawlin' Black Spider
TTITLE7=Dimples
TTITLE8=Maudie
TTITLE9=No Shoes
TTITLE10=I'm Mad Again
TTITLE11=What Do You Say
TTITLE12=Don't Look Back
TTITLE13=Send Me Your Pillow
TTITLE14=I'm Going Upstairs
TTITLE15=I Love You Honey
EXTD=
EXTT0=
EXTT1=
EXTT2=
EXTT3=
EXTT4=
EXTT5=
EXTT6=
EXTT7=
EXTT8=
EXTT9=
EXTT10=
EXTT11=
EXTT12=
EXTT13=
EXTT14=
EXTT15=
PLAYORDER=
